<svg fill="black" xmlns="http://www.w3.org/2000/svg" viewBox="0 0 50 50" width="500px" height="500px"
    fill-rule="evenodd">
    <path fill-rule="evenodd"
        d="M 42.769531 6.234375 L 42.941406 6.695313 L 43.023438 6.929688 L 43.105469 7.15625 L 43.253906 7.617188 L 43.324219 7.847656 L 43.457031 8.300781 L 43.519531 8.527344 L 43.582031 8.75 L 43.640625 8.972656 L 43.695313 9.195313 L 43.746094 9.414063 L 43.796875 9.636719 L 43.84375 9.851563 L 43.890625 10.070313 L 43.933594 10.285156 L 43.976563 10.496094 L 44.015625 10.707031 L 44.050781 10.917969 L 44.085938 11.125 L 44.179688 11.734375 L 44.203125 11.933594 L 44.230469 12.128906 L 44.253906 12.324219 L 44.273438 12.515625 L 44.296875 12.703125 L 44.3125 12.890625 L 44.34375 13.257813 L 44.378906 13.785156 L 44.394531 14.121094 L 44.402344 14.285156 L 44.40625 14.445313 L 44.410156 14.601563 L 44.414063 14.753906 L 44.414063 15.195313 L 44.40625 15.46875 L 44.402344 15.601563 L 44.394531 15.851563 L 44.386719 15.972656 L 44.371094 16.199219 L 44.355469 16.410156 L 44.34375 16.507813 L 44.335938 16.601563 L 44.324219 16.691406 L 44.300781 16.855469 L 44.289063 16.929688 L 44.277344 17 L 44.261719 17.066406 L 44.371094 17.183594 L 44.476563 17.304688 L 44.585938 17.425781 L 44.6875 17.542969 L 44.789063 17.664063 L 44.890625 17.789063 L 44.992188 17.910156 L 45.1875 18.160156 L 45.28125 18.285156 L 45.378906 18.414063 L 45.46875 18.539063 L 45.5625 18.667969 L 45.652344 18.796875 L 45.738281 18.929688 L 45.824219 19.058594 L 45.996094 19.324219 L 46.078125 19.460938 L 46.15625 19.59375 L 46.238281 19.730469 L 46.316406 19.867188 L 46.390625 20.003906 L 46.539063 20.285156 L 46.609375 20.425781 L 46.679688 20.570313 L 46.746094 20.710938 L 46.8125 20.855469 L 46.878906 21.003906 L 46.941406 21.148438 L 47.003906 21.300781 L 47.0625 21.449219 L 47.117188 21.597656 L 47.175781 21.75 L 47.230469 21.902344 L 47.382813 22.371094 L 47.429688 22.527344 L 47.476563 22.6875 L 47.519531 22.847656 L 47.558594 23.011719 L 47.601563 23.175781 L 47.640625 23.339844 L 47.675781 23.503906 L 47.710938 23.671875 L 47.742188 23.839844 L 47.773438 24.011719 L 47.828125 24.355469 L 47.855469 24.53125 L 47.878906 24.707031 L 47.898438 24.882813 L 47.917969 25.0625 L 47.933594 25.242188 L 47.964844 25.609375 L 47.972656 25.792969 L 47.984375 25.980469 L 47.992188 26.167969 L 47.996094 26.355469 L 48 26.550781 L 48 26.949219 L 47.996094 27.160156 L 47.992188 27.367188 L 47.984375 27.773438 L 47.976563 27.976563 L 47.96875 28.175781 L 47.957031 28.375 L 47.921875 28.960938 L 47.902344 29.152344 L 47.886719 29.34375 L 47.871094 29.53125 L 47.851563 29.722656 L 47.832031 29.90625 L 47.808594 30.09375 L 47.789063 30.273438 L 47.765625 30.457031 L 47.738281 30.636719 L 47.714844 30.816406 L 47.6875 30.992188 L 47.65625 31.167969 L 47.628906 31.34375 L 47.566406 31.6875 L 47.53125 31.855469 L 47.5 32.023438 L 47.464844 32.191406 L 47.429688 32.355469 L 47.351563 32.683594 L 47.273438 33.003906 L 47.230469 33.164063 L 47.144531 33.476563 L 47.101563 33.628906 L 46.960938 34.085938 L 46.910156 34.234375 L 46.863281 34.382813 L 46.761719 34.671875 L 46.707031 34.816406 L 46.652344 34.957031 L 46.601563 35.097656 L 46.546875 35.238281 L 46.371094 35.648438 L 46.316406 35.78125 L 46.253906 35.914063 L 46.195313 36.046875 L 46.007813 36.433594 L 45.945313 36.558594 L 45.8125 36.808594 L 45.746094 36.929688 L 45.679688 37.054688 L 45.613281 37.171875 L 45.542969 37.292969 L 45.402344 37.527344 L 45.332031 37.640625 L 45.261719 37.757813 L 45.1875 37.871094 L 45.117188 37.980469 L 45.042969 38.09375 L 44.96875 38.203125 L 44.894531 38.308594 L 44.816406 38.417969 L 44.742188 38.523438 L 44.664063 38.628906 L 44.585938 38.730469 L 44.507813 38.835938 L 44.429688 38.9375 L 44.347656 39.035156 L 44.269531 39.136719 L 44.105469 39.332031 L 44.023438 39.425781 L 43.941406 39.523438 L 43.859375 39.617188 L 43.773438 39.710938 L 43.691406 39.800781 L 43.433594 40.070313 L 43.175781 40.328125 L 43.085938 40.410156 L 42.996094 40.496094 L 42.910156 40.578125 L 42.820313 40.660156 L 42.730469 40.738281 L 42.640625 40.820313 L 42.550781 40.898438 L 42.457031 40.972656 L 42.367188 41.050781 L 42.273438 41.125 L 42.183594 41.199219 L 41.996094 41.347656 L 41.902344 41.417969 L 41.8125 41.488281 L 41.71875 41.558594 L 41.621094 41.628906 L 41.339844 41.828125 L 41.242188 41.894531 L 41.148438 41.957031 L 40.953125 42.082031 L 40.859375 42.144531 L 40.761719 42.203125 L 40.664063 42.265625 L 40.46875 42.382813 L 40.371094 42.4375 L 40.273438 42.496094 L 39.980469 42.660156 L 39.878906 42.714844 L 39.585938 42.867188 L 39.484375 42.917969 L 39.285156 43.015625 L 39.085938 43.109375 L 38.6875 43.289063 L 38.488281 43.375 L 38.289063 43.457031 L 38.089844 43.535156 L 37.886719 43.613281 L 37.6875 43.6875 L 37.289063 43.828125 L 37.089844 43.894531 L 36.894531 43.957031 L 36.695313 44.019531 L 36.496094 44.078125 L 36.105469 44.1875 L 35.714844 44.289063 L 35.523438 44.335938 L 35.328125 44.378906 L 35.140625 44.421875 L 34.949219 44.464844 L 34.761719 44.503906 L 34.570313 44.539063 L 34.203125 44.609375 L 33.835938 44.671875 L 33.65625 44.699219 L 33.480469 44.722656 L 33.304688 44.75 L 33.128906 44.773438 L 32.785156 44.8125 L 32.617188 44.832031 L 32.453125 44.851563 L 32.289063 44.867188 L 32.128906 44.882813 L 31.96875 44.894531 L 31.8125 44.90625 L 31.660156 44.921875 L 31.507813 44.929688 L 31.359375 44.941406 L 31.214844 44.949219 L 30.933594 44.960938 L 30.664063 44.972656 L 30.40625 44.980469 L 30.164063 44.988281 L 29.933594 44.992188 L 29.71875 44.992188 L 29.515625 44.996094 L 27.519531 44.996094 L 25 45 L 22.480469 44.996094 L 20.484375 44.996094 L 20.28125 44.992188 L 20.066406 44.992188 L 19.835938 44.988281 L 19.59375 44.980469 L 19.335938 44.972656 L 19.066406 44.960938 L 18.785156 44.949219 L 18.640625 44.941406 L 18.492188 44.929688 L 18.339844 44.921875 L 18.1875 44.90625 L 18.03125 44.894531 L 17.871094 44.882813 L 17.710938 44.867188 L 17.546875 44.851563 L 17.382813 44.832031 L 17.214844 44.8125 L 16.871094 44.773438 L 16.695313 44.75 L 16.519531 44.722656 L 16.34375 44.699219 L 16.164063 44.671875 L 15.796875 44.609375 L 15.429688 44.539063 L 15.238281 44.503906 L 15.050781 44.464844 L 14.859375 44.421875 L 14.671875 44.378906 L 14.476563 44.335938 L 14.285156 44.289063 L 13.894531 44.1875 L 13.503906 44.078125 L 13.304688 44.019531 L 13.105469 43.957031 L 12.910156 43.894531 L 12.710938 43.828125 L 12.3125 43.6875 L 12.113281 43.613281 L 11.910156 43.535156 L 11.710938 43.457031 L 11.511719 43.375 L 11.3125 43.289063 L 10.914063 43.109375 L 10.714844 43.015625 L 10.515625 42.917969 L 10.414063 42.867188 L 10.121094 42.714844 L 10.019531 42.660156 L 9.726563 42.496094 L 9.628906 42.4375 L 9.53125 42.382813 L 9.335938 42.265625 L 9.238281 42.203125 L 9.140625 42.144531 L 9.046875 42.082031 L 8.851563 41.957031 L 8.757813 41.894531 L 8.660156 41.828125 L 8.378906 41.628906 L 8.28125 41.558594 L 8.1875 41.488281 L 8.097656 41.417969 L 8.003906 41.347656 L 7.816406 41.199219 L 7.726563 41.125 L 7.632813 41.050781 L 7.542969 40.972656 L 7.449219 40.898438 L 7.359375 40.820313 L 7.269531 40.738281 L 7.179688 40.660156 L 7.089844 40.578125 L 7.003906 40.496094 L 6.914063 40.410156 L 6.824219 40.328125 L 6.566406 40.070313 L 6.308594 39.800781 L 6.226563 39.710938 L 6.140625 39.617188 L 6.058594 39.523438 L 5.976563 39.425781 L 5.894531 39.332031 L 5.730469 39.136719 L 5.652344 39.035156 L 5.570313 38.9375 L 5.492188 38.835938 L 5.414063 38.730469 L 5.335938 38.628906 L 5.257813 38.523438 L 5.183594 38.417969 L 5.105469 38.308594 L 5.03125 38.203125 L 4.957031 38.09375 L 4.882813 37.980469 L 4.8125 37.871094 L 4.738281 37.757813 L 4.667969 37.640625 L 4.597656 37.527344 L 4.457031 37.292969 L 4.386719 37.171875 L 4.320313 37.054688 L 4.253906 36.929688 L 4.1875 36.808594 L 4.054688 36.558594 L 3.992188 36.433594 L 3.804688 36.046875 L 3.746094 35.914063 L 3.683594 35.78125 L 3.628906 35.648438 L 3.453125 35.238281 L 3.398438 35.097656 L 3.347656 34.957031 L 3.292969 34.816406 L 3.238281 34.671875 L 3.136719 34.382813 L 3.089844 34.234375 L 3.039063 34.085938 L 2.898438 33.628906 L 2.855469 33.476563 L 2.769531 33.164063 L 2.726563 33.003906 L 2.648438 32.683594 L 2.570313 32.355469 L 2.535156 32.191406 L 2.5 32.023438 L 2.46875 31.855469 L 2.433594 31.6875 L 2.371094 31.34375 L 2.34375 31.167969 L 2.3125 30.992188 L 2.285156 30.816406 L 2.261719 30.636719 L 2.234375 30.457031 L 2.210938 30.273438 L 2.191406 30.09375 L 2.167969 29.90625 L 2.148438 29.722656 L 2.128906 29.53125 L 2.113281 29.34375 L 2.097656 29.152344 L 2.078125 28.960938 L 2.042969 28.375 L 2.03125 28.175781 L 2.023438 27.976563 L 2.015625 27.773438 L 2.007813 27.367188 L 2.003906 27.160156 L 2 26.949219 L 2 26.550781 L 2.003906 26.355469 L 2.007813 26.167969 L 2.015625 25.980469 L 2.027344 25.792969 L 2.035156 25.609375 L 2.066406 25.242188 L 2.082031 25.0625 L 2.101563 24.882813 L 2.121094 24.707031 L 2.144531 24.53125 L 2.171875 24.355469 L 2.226563 24.011719 L 2.257813 23.839844 L 2.289063 23.671875 L 2.324219 23.503906 L 2.359375 23.339844 L 2.398438 23.175781 L 2.441406 23.011719 L 2.480469 22.847656 L 2.523438 22.6875 L 2.570313 22.527344 L 2.617188 22.371094 L 2.769531 21.902344 L 2.824219 21.75 L 2.882813 21.597656 L 2.9375 21.449219 L 2.996094 21.296875 L 3.058594 21.148438 L 3.121094 21.003906 L 3.1875 20.855469 L 3.253906 20.710938 L 3.320313 20.570313 L 3.390625 20.425781 L 3.460938 20.285156 L 3.609375 20.003906 L 3.683594 19.867188 L 3.761719 19.730469 L 3.84375 19.59375 L 3.921875 19.460938 L 4.003906 19.324219 L 4.175781 19.058594 L 4.261719 18.929688 L 4.347656 18.796875 L 4.4375 18.667969 L 4.53125 18.539063 L 4.621094 18.414063 L 4.71875 18.285156 L 4.8125 18.160156 L 5.007813 17.910156 L 5.109375 17.789063 L 5.210938 17.664063 L 5.3125 17.542969 L 5.414063 17.425781 L 5.523438 17.304688 L 5.628906 17.183594 L 5.738281 17.066406 L 5.722656 16.996094 L 5.710938 16.921875 L 5.695313 16.839844 L 5.683594 16.757813 L 5.671875 16.667969 L 5.660156 16.574219 L 5.648438 16.476563 L 5.640625 16.375 L 5.628906 16.269531 L 5.621094 16.160156 L 5.613281 16.046875 L 5.605469 15.929688 L 5.597656 15.808594 L 5.59375 15.683594 L 5.585938 15.554688 L 5.582031 15.421875 L 5.578125 15.285156 L 5.578125 14.703125 L 5.582031 14.550781 L 5.585938 14.394531 L 5.589844 14.234375 L 5.597656 14.070313 L 5.601563 13.90625 L 5.613281 13.734375 L 5.621094 13.566406 L 5.632813 13.390625 L 5.664063 13.03125 L 5.679688 12.847656 L 5.699219 12.664063 L 5.71875 12.476563 L 5.738281 12.285156 L 5.761719 12.09375 L 5.789063 11.898438 L 5.84375 11.5 L 5.875 11.300781 L 5.910156 11.097656 L 5.980469 10.683594 L 6.019531 10.472656 L 6.105469 10.050781 L 6.152344 9.835938 L 6.199219 9.617188 L 6.25 9.402344 L 6.304688 9.183594 L 6.359375 8.960938 L 6.417969 8.738281 L 6.542969 8.292969 L 6.605469 8.066406 L 6.746094 7.613281 L 6.820313 7.386719 L 6.976563 6.925781 L 7.058594 6.695313 L 7.230469 6.234375 L 7.324219 6 L 7.375 6.007813 L 7.441406 6.015625 L 7.53125 6.03125 L 7.644531 6.050781 L 7.785156 6.078125 L 7.949219 6.109375 L 8.136719 6.152344 L 8.238281 6.175781 L 8.347656 6.199219 L 8.460938 6.226563 L 8.582031 6.257813 L 8.707031 6.289063 L 8.839844 6.328125 L 8.972656 6.363281 L 9.117188 6.40625 L 9.414063 6.492188 L 9.574219 6.542969 L 9.738281 6.597656 L 9.90625 6.652344 L 10.078125 6.710938 L 10.257813 6.769531 L 10.441406 6.835938 L 10.632813 6.902344 L 10.824219 6.976563 L 11.023438 7.050781 L 11.226563 7.132813 L 11.4375 7.214844 L 11.648438 7.300781 L 11.867188 7.390625 L 12.089844 7.488281 L 12.316406 7.585938 L 12.550781 7.6875 L 12.785156 7.796875 L 13.269531 8.023438 L 13.519531 8.144531 L 13.773438 8.273438 L 14.296875 8.535156 L 14.5625 8.675781 L 14.832031 8.820313 L 15.105469 8.972656 L 15.386719 9.128906 L 15.667969 9.289063 L 15.953125 9.453125 L 16.246094 9.625 L 16.539063 9.800781 L 16.835938 9.984375 L 17.140625 10.171875 L 17.445313 10.363281 L 17.597656 10.464844 L 17.753906 10.5625 L 17.910156 10.664063 L 18.222656 10.875 L 18.382813 10.980469 L 18.539063 11.089844 L 18.699219 11.199219 L 18.839844 11.160156 L 18.980469 11.125 L 19.132813 11.089844 L 19.285156 11.058594 L 19.445313 11.027344 L 19.609375 10.996094 L 19.777344 10.964844 L 19.949219 10.9375 L 20.308594 10.882813 L 20.683594 10.835938 L 21.074219 10.789063 L 21.273438 10.769531 L 21.476563 10.753906 L 21.683594 10.734375 L 21.894531 10.71875 L 22.105469 10.699219 L 22.316406 10.6875 L 22.535156 10.671875 L 22.972656 10.648438 L 23.191406 10.640625 L 23.414063 10.632813 L 23.640625 10.625 L 23.863281 10.617188 L 24.316406 10.609375 L 24.546875 10.605469 L 24.773438 10.605469 L 25 10.601563 L 25.226563 10.605469 L 25.453125 10.605469 L 25.683594 10.609375 L 26.136719 10.617188 L 26.359375 10.625 L 26.585938 10.632813 L 26.808594 10.640625 L 27.027344 10.648438 L 27.25 10.660156 L 27.464844 10.671875 L 27.683594 10.6875 L 27.894531 10.699219 L 28.105469 10.71875 L 28.316406 10.734375 L 28.523438 10.753906 L 28.726563 10.769531 L 28.925781 10.789063 L 29.316406 10.835938 L 29.691406 10.882813 L 30.050781 10.9375 L 30.222656 10.964844 L 30.390625 10.996094 L 30.554688 11.027344 L 30.714844 11.058594 L 30.867188 11.09375 L 31.019531 11.125 L 31.160156 11.160156 L 31.296875 11.199219 L 31.460938 11.089844 L 31.617188 10.980469 L 31.777344 10.875 L 32.089844 10.664063 L 32.246094 10.5625 L 32.402344 10.464844 L 32.554688 10.363281 L 32.859375 10.171875 L 33.160156 9.984375 L 33.460938 9.800781 L 33.753906 9.625 L 34.046875 9.453125 L 34.332031 9.289063 L 34.613281 9.128906 L 34.894531 8.972656 L 35.167969 8.820313 L 35.4375 8.675781 L 35.703125 8.535156 L 36.226563 8.273438 L 36.480469 8.144531 L 36.730469 8.027344 L 36.972656 7.910156 L 37.214844 7.796875 L 37.683594 7.585938 L 37.910156 7.488281 L 38.132813 7.390625 L 38.351563 7.300781 L 38.5625 7.214844 L 38.773438 7.132813 L 38.976563 7.050781 L 39.175781 6.976563 L 39.367188 6.902344 L 39.558594 6.835938 L 39.742188 6.769531 L 39.921875 6.710938 L 40.09375 6.652344 L 40.261719 6.597656 L 40.425781 6.542969 L 40.585938 6.492188 L 40.738281 6.449219 L 41.027344 6.363281 L 41.164063 6.328125 L 41.292969 6.289063 L 41.417969 6.257813 L 41.539063 6.226563 L 41.652344 6.199219 L 41.761719 6.175781 L 41.863281 6.152344 L 42.050781 6.109375 L 42.214844 6.078125 L 42.355469 6.050781 L 42.472656 6.03125 L 42.5625 6.015625 L 42.625 6.007813 L 42.679688 6 Z M 16.34375 24.855469 L 16.121094 24.859375 L 15.902344 24.863281 L 15.683594 24.871094 L 15.46875 24.882813 L 15.046875 24.914063 L 14.941406 24.925781 L 14.839844 24.9375 L 14.734375 24.949219 L 14.53125 24.972656 L 14.328125 25.003906 L 14.230469 25.015625 L 14.128906 25.035156 L 14.03125 25.050781 L 13.738281 25.109375 L 13.640625 25.132813 L 13.546875 25.152344 L 13.449219 25.179688 L 13.261719 25.226563 L 13.167969 25.253906 L 13.078125 25.28125 L 12.984375 25.3125 L 12.894531 25.339844 L 12.804688 25.371094 L 12.714844 25.40625 L 12.625 25.4375 L 12.535156 25.472656 L 12.449219 25.507813 L 12.359375 25.546875 L 12.1875 25.625 L 12.105469 25.664063 L 12.019531 25.707031 L 11.9375 25.75 L 11.609375 25.9375 L 11.53125 25.988281 L 11.449219 26.039063 L 11.371094 26.09375 L 11.296875 26.148438 L 11.21875 26.203125 L 11.140625 26.261719 L 11.066406 26.320313 L 10.84375 26.507813 L 10.773438 26.574219 L 10.6875 26.652344 L 10.601563 26.734375 L 10.519531 26.8125 L 10.4375 26.894531 L 10.28125 27.058594 L 10.132813 27.222656 L 10.058594 27.308594 L 9.984375 27.390625 L 9.914063 27.476563 L 9.847656 27.558594 L 9.648438 27.816406 L 9.585938 27.902344 L 9.527344 27.992188 L 9.464844 28.078125 L 9.40625 28.164063 L 9.296875 28.34375 L 9.238281 28.433594 L 9.085938 28.703125 L 9.039063 28.792969 L 8.988281 28.886719 L 8.945313 28.976563 L 8.898438 29.066406 L 8.855469 29.160156 L 8.816406 29.253906 L 8.773438 29.347656 L 8.734375 29.441406 L 8.699219 29.535156 L 8.660156 29.628906 L 8.628906 29.722656 L 8.59375 29.816406 L 8.558594 29.914063 L 8.527344 30.007813 L 8.5 30.105469 L 8.472656 30.199219 L 8.417969 30.394531 L 8.347656 30.6875 L 8.289063 30.980469 L 8.273438 31.082031 L 8.257813 31.179688 L 8.242188 31.28125 L 8.226563 31.378906 L 8.203125 31.582031 L 8.195313 31.683594 L 8.1875 31.78125 L 8.171875 31.984375 L 8.164063 32.1875 L 8.160156 32.292969 L 8.15625 32.394531 L 8.15625 32.496094 L 8.160156 32.710938 L 8.164063 32.921875 L 8.171875 33.128906 L 8.179688 33.332031 L 8.191406 33.535156 L 8.207031 33.734375 L 8.222656 33.929688 L 8.242188 34.125 L 8.265625 34.316406 L 8.289063 34.503906 L 8.316406 34.691406 L 8.347656 34.871094 L 8.382813 35.054688 L 8.414063 35.230469 L 8.453125 35.40625 L 8.492188 35.578125 L 8.515625 35.664063 L 8.535156 35.75 L 8.558594 35.832031 L 8.582031 35.917969 L 8.628906 36.082031 L 8.65625 36.164063 L 8.679688 36.242188 L 8.707031 36.324219 L 8.730469 36.402344 L 8.757813 36.484375 L 8.785156 36.5625 L 8.816406 36.640625 L 8.84375 36.71875 L 8.875 36.792969 L 8.902344 36.867188 L 8.933594 36.945313 L 8.996094 37.09375 L 9.03125 37.167969 L 9.0625 37.238281 L 9.097656 37.3125 L 9.128906 37.382813 L 9.164063 37.453125 L 9.199219 37.527344 L 9.234375 37.597656 L 9.273438 37.664063 L 9.308594 37.734375 L 9.347656 37.804688 L 9.542969 38.136719 L 9.585938 38.199219 L 9.625 38.265625 L 9.839844 38.578125 L 9.886719 38.640625 L 9.929688 38.699219 L 9.976563 38.757813 L 10.023438 38.820313 L 10.070313 38.878906 L 10.164063 38.992188 L 10.261719 39.109375 L 10.359375 39.21875 L 10.464844 39.328125 L 10.566406 39.4375 L 10.671875 39.542969 L 10.777344 39.644531 L 10.890625 39.746094 L 11 39.847656 L 11.113281 39.945313 L 11.464844 40.226563 L 11.585938 40.316406 L 11.960938 40.574219 L 12.089844 40.65625 L 12.222656 40.738281 L 12.488281 40.894531 L 12.761719 41.042969 L 13.042969 41.183594 L 13.1875 41.253906 L 13.328125 41.320313 L 13.476563 41.386719 L 13.773438 41.511719 L 13.925781 41.570313 L 14.078125 41.632813 L 14.546875 41.796875 L 14.707031 41.851563 L 14.867188 41.902344 L 15.03125 41.953125 L 15.359375 42.046875 L 15.527344 42.09375 L 15.695313 42.136719 L 15.867188 42.179688 L 16.035156 42.222656 L 16.210938 42.261719 L 16.382813 42.300781 L 16.558594 42.339844 L 16.738281 42.375 L 16.914063 42.410156 L 17.09375 42.445313 L 17.460938 42.507813 L 17.640625 42.539063 L 18.015625 42.59375 L 18.199219 42.621094 L 18.390625 42.648438 L 18.578125 42.671875 L 18.773438 42.695313 L 18.964844 42.71875 L 19.15625 42.738281 L 19.351563 42.761719 L 19.550781 42.78125 L 19.746094 42.796875 L 19.945313 42.816406 L 20.34375 42.847656 L 20.546875 42.863281 L 20.746094 42.878906 L 20.953125 42.890625 L 21.15625 42.902344 L 21.570313 42.925781 L 21.984375 42.941406 L 22.195313 42.953125 L 22.40625 42.960938 L 22.828125 42.972656 L 23.257813 42.984375 L 23.6875 42.992188 L 24.121094 42.996094 L 24.558594 43 L 25.582031 43 L 26.019531 42.996094 L 26.453125 42.992188 L 26.882813 42.984375 L 27.308594 42.972656 L 27.730469 42.960938 L 27.941406 42.953125 L 28.148438 42.941406 L 28.359375 42.933594 L 28.566406 42.925781 L 28.769531 42.914063 L 28.976563 42.902344 L 29.382813 42.878906 L 29.585938 42.863281 L 30.183594 42.816406 L 30.382813 42.796875 L 30.578125 42.78125 L 30.773438 42.761719 L 30.964844 42.738281 L 31.15625 42.71875 L 31.539063 42.671875 L 31.726563 42.648438 L 32.101563 42.59375 L 32.285156 42.566406 L 32.472656 42.539063 L 32.652344 42.507813 L 32.835938 42.476563 L 33.015625 42.445313 L 33.191406 42.410156 L 33.371094 42.375 L 33.546875 42.339844 L 34.0625 42.222656 L 34.234375 42.179688 L 34.570313 42.09375 L 35.0625 41.953125 L 35.382813 41.851563 L 35.851563 41.6875 L 36.003906 41.632813 L 36.152344 41.570313 L 36.304688 41.511719 L 36.453125 41.449219 L 36.597656 41.386719 L 36.886719 41.253906 L 37.167969 41.113281 L 37.304688 41.042969 L 37.441406 40.96875 L 37.574219 40.894531 L 37.839844 40.738281 L 37.96875 40.65625 L 38.09375 40.574219 L 38.222656 40.488281 L 38.464844 40.316406 L 38.585938 40.226563 L 38.820313 40.039063 L 38.933594 39.945313 L 39.046875 39.847656 L 39.15625 39.746094 L 39.367188 39.542969 L 39.472656 39.4375 L 39.675781 39.21875 L 39.773438 39.109375 L 39.867188 38.992188 L 39.960938 38.878906 L 40.054688 38.757813 L 40.144531 38.640625 L 40.359375 38.328125 L 40.398438 38.265625 L 40.441406 38.199219 L 40.480469 38.136719 L 40.675781 37.804688 L 40.746094 37.664063 L 40.78125 37.597656 L 40.816406 37.527344 L 40.851563 37.453125 L 40.921875 37.3125 L 40.953125 37.238281 L 40.984375 37.167969 L 41.019531 37.09375 L 41.050781 37.019531 L 41.078125 36.945313 L 41.109375 36.867188 L 41.140625 36.792969 L 41.167969 36.71875 L 41.195313 36.640625 L 41.226563 36.5625 L 41.253906 36.484375 L 41.277344 36.402344 L 41.304688 36.324219 L 41.328125 36.242188 L 41.355469 36.164063 L 41.425781 35.917969 L 41.46875 35.75 L 41.511719 35.578125 L 41.550781 35.40625 L 41.589844 35.230469 L 41.625 35.054688 L 41.65625 34.871094 L 41.683594 34.691406 L 41.714844 34.503906 L 41.738281 34.316406 L 41.757813 34.125 L 41.796875 33.734375 L 41.808594 33.535156 L 41.832031 33.128906 L 41.839844 32.921875 L 41.84375 32.710938 L 41.84375 32.394531 L 41.839844 32.292969 L 41.839844 32.1875 L 41.835938 32.085938 L 41.828125 31.984375 L 41.824219 31.882813 L 41.816406 31.78125 L 41.808594 31.683594 L 41.773438 31.378906 L 41.761719 31.28125 L 41.746094 31.179688 L 41.730469 31.082031 L 41.710938 30.980469 L 41.695313 30.882813 L 41.675781 30.785156 L 41.652344 30.6875 L 41.632813 30.589844 L 41.609375 30.492188 L 41.582031 30.394531 L 41.558594 30.296875 L 41.53125 30.199219 L 41.5 30.105469 L 41.472656 30.007813 L 41.441406 29.914063 L 41.40625 29.816406 L 41.375 29.722656 L 41.304688 29.535156 L 41.1875 29.253906 L 41.101563 29.066406 L 41.058594 28.976563 L 41.011719 28.886719 L 40.964844 28.792969 L 40.761719 28.433594 L 40.652344 28.253906 L 40.59375 28.164063 L 40.476563 27.992188 L 40.414063 27.902344 L 40.351563 27.816406 L 40.285156 27.730469 L 40.222656 27.644531 L 40.152344 27.558594 L 40.085938 27.476563 L 40.015625 27.390625 L 39.941406 27.308594 L 39.871094 27.222656 L 39.796875 27.140625 L 39.5625 26.894531 L 39.480469 26.8125 L 39.398438 26.734375 L 39.3125 26.652344 L 39.230469 26.574219 L 39.15625 26.507813 L 39.085938 26.445313 L 39.011719 26.382813 L 38.933594 26.320313 L 38.785156 26.203125 L 38.550781 26.039063 L 38.472656 25.988281 L 38.390625 25.9375 L 38.3125 25.890625 L 38.066406 25.75 L 37.980469 25.707031 L 37.898438 25.664063 L 37.554688 25.507813 L 37.464844 25.472656 L 37.378906 25.4375 L 37.289063 25.40625 L 37.199219 25.371094 L 37.109375 25.339844 L 37.015625 25.3125 L 36.925781 25.28125 L 36.738281 25.226563 L 36.550781 25.179688 L 36.457031 25.152344 L 36.359375 25.132813 L 36.265625 25.109375 L 35.972656 25.050781 L 35.871094 25.035156 L 35.773438 25.019531 L 35.46875 24.972656 L 35.164063 24.9375 L 34.953125 24.914063 L 34.851563 24.90625 L 34.746094 24.898438 L 34.636719 24.890625 L 34.53125 24.882813 L 34.316406 24.871094 L 34.101563 24.863281 L 33.878906 24.859375 L 33.660156 24.855469 L 33.433594 24.851563 L 33.210938 24.855469 L 32.980469 24.855469 L 32.753906 24.863281 L 32.519531 24.867188 L 32.285156 24.878906 L 32.050781 24.886719 L 31.574219 24.910156 L 31.332031 24.925781 L 31.089844 24.9375 L 30.84375 24.953125 L 30.347656 24.988281 L 29.339844 25.058594 L 28.824219 25.09375 L 28.304688 25.128906 L 28.039063 25.144531 L 27.777344 25.160156 L 27.511719 25.175781 L 27.246094 25.1875 L 26.976563 25.203125 L 26.710938 25.214844 L 26.4375 25.222656 L 26.167969 25.230469 L 25.894531 25.238281 L 25.347656 25.246094 L 24.652344 25.246094 L 24.105469 25.238281 L 23.832031 25.230469 L 23.292969 25.214844 L 23.023438 25.203125 L 22.753906 25.1875 L 22.488281 25.175781 L 22.222656 25.160156 L 21.699219 25.128906 L 21.175781 25.09375 L 20.664063 25.058594 L 19.652344 24.988281 L 19.15625 24.953125 L 18.914063 24.9375 L 18.671875 24.925781 L 18.429688 24.910156 L 18.1875 24.898438 L 17.949219 24.886719 L 17.714844 24.878906 L 17.480469 24.867188 L 17.25 24.863281 L 17.019531 24.855469 L 16.792969 24.855469 L 16.566406 24.851563 Z M 33.03125 28.773438 L 33.113281 28.78125 L 33.199219 28.785156 L 33.363281 28.808594 L 33.441406 28.824219 L 33.523438 28.84375 L 33.601563 28.863281 L 33.683594 28.890625 L 33.761719 28.914063 L 33.835938 28.945313 L 33.914063 28.976563 L 33.988281 29.011719 L 34.066406 29.046875 L 34.140625 29.085938 L 34.214844 29.128906 L 34.285156 29.171875 L 34.425781 29.265625 L 34.496094 29.316406 L 34.566406 29.371094 L 34.699219 29.480469 L 34.765625 29.542969 L 34.890625 29.667969 L 35.015625 29.800781 L 35.132813 29.941406 L 35.191406 30.015625 L 35.246094 30.089844 L 35.300781 30.167969 L 35.351563 30.246094 L 35.40625 30.328125 L 35.453125 30.410156 L 35.503906 30.496094 L 35.550781 30.578125 L 35.597656 30.667969 L 35.726563 30.9375 L 35.765625 31.03125 L 35.804688 31.128906 L 35.84375 31.222656 L 35.878906 31.320313 L 35.910156 31.421875 L 35.941406 31.519531 L 35.972656 31.621094 L 36 31.726563 L 36.027344 31.828125 L 36.074219 32.039063 L 36.113281 32.257813 L 36.132813 32.363281 L 36.144531 32.476563 L 36.160156 32.585938 L 36.171875 32.699219 L 36.1875 32.925781 L 36.191406 33.039063 L 36.195313 33.15625 L 36.195313 33.386719 L 36.191406 33.503906 L 36.1875 33.617188 L 36.171875 33.84375 L 36.160156 33.957031 L 36.144531 34.070313 L 36.132813 34.179688 L 36.09375 34.398438 L 36.074219 34.503906 L 36.027344 34.714844 L 36 34.820313 L 35.972656 34.921875 L 35.910156 35.125 L 35.878906 35.222656 L 35.839844 35.320313 L 35.804688 35.417969 L 35.726563 35.605469 L 35.683594 35.695313 L 35.640625 35.789063 L 35.597656 35.878906 L 35.503906 36.050781 L 35.453125 36.132813 L 35.40625 36.21875 L 35.351563 36.296875 L 35.300781 36.378906 L 35.246094 36.453125 L 35.1875 36.527344 L 35.132813 36.601563 L 35.074219 36.675781 L 35.015625 36.742188 L 34.953125 36.8125 L 34.890625 36.878906 L 34.765625 37.003906 L 34.632813 37.121094 L 34.566406 37.175781 L 34.496094 37.230469 L 34.425781 37.277344 L 34.355469 37.328125 L 34.285156 37.375 L 34.214844 37.417969 L 34.140625 37.460938 L 34.066406 37.5 L 33.988281 37.535156 L 33.914063 37.570313 L 33.835938 37.601563 L 33.761719 37.628906 L 33.683594 37.65625 L 33.601563 37.679688 L 33.523438 37.699219 L 33.441406 37.71875 L 33.363281 37.734375 L 33.199219 37.757813 L 33.113281 37.765625 L 33.03125 37.769531 L 32.863281 37.769531 L 32.78125 37.765625 L 32.699219 37.757813 L 32.535156 37.734375 L 32.453125 37.71875 L 32.371094 37.699219 L 32.292969 37.679688 L 32.214844 37.65625 L 32.058594 37.601563 L 31.980469 37.570313 L 31.90625 37.535156 L 31.828125 37.5 L 31.757813 37.460938 L 31.609375 37.375 L 31.539063 37.328125 L 31.46875 37.277344 L 31.398438 37.230469 L 31.328125 37.175781 L 31.261719 37.121094 L 31.195313 37.0625 L 31.132813 37.003906 L 31.066406 36.941406 L 31.003906 36.878906 L 30.941406 36.8125 L 30.878906 36.742188 L 30.820313 36.675781 L 30.703125 36.527344 L 30.59375 36.378906 L 30.542969 36.296875 L 30.488281 36.21875 L 30.441406 36.132813 L 30.390625 36.050781 L 30.296875 35.878906 L 30.253906 35.789063 L 30.210938 35.695313 L 30.167969 35.605469 L 30.089844 35.417969 L 29.984375 35.125 L 29.921875 34.921875 L 29.894531 34.820313 L 29.867188 34.714844 L 29.820313 34.503906 L 29.800781 34.398438 L 29.761719 34.179688 L 29.746094 34.070313 L 29.722656 33.84375 L 29.699219 33.503906 L 29.699219 33.386719 L 29.695313 33.273438 L 29.699219 33.15625 L 29.699219 33.039063 L 29.722656 32.699219 L 29.734375 32.585938 L 29.746094 32.476563 L 29.761719 32.363281 L 29.78125 32.257813 L 29.820313 32.039063 L 29.867188 31.828125 L 29.894531 31.726563 L 29.921875 31.621094 L 29.953125 31.519531 L 29.984375 31.421875 L 30.019531 31.320313 L 30.054688 31.222656 L 30.089844 31.128906 L 30.128906 31.03125 L 30.167969 30.9375 L 30.296875 30.667969 L 30.34375 30.578125 L 30.390625 30.496094 L 30.441406 30.410156 L 30.488281 30.328125 L 30.542969 30.246094 L 30.59375 30.167969 L 30.648438 30.089844 L 30.703125 30.015625 L 30.761719 29.941406 L 30.878906 29.800781 L 31.003906 29.667969 L 31.066406 29.605469 L 31.132813 29.542969 L 31.195313 29.480469 L 31.328125 29.371094 L 31.398438 29.316406 L 31.46875 29.265625 L 31.609375 29.171875 L 31.757813 29.085938 L 31.828125 29.046875 L 31.90625 29.011719 L 31.980469 28.976563 L 32.136719 28.914063 L 32.214844 28.890625 L 32.292969 28.863281 L 32.371094 28.84375 L 32.453125 28.824219 L 32.535156 28.808594 L 32.699219 28.785156 L 32.78125 28.78125 L 32.863281 28.773438 Z M 17.136719 28.773438 L 17.21875 28.78125 L 17.300781 28.785156 L 17.464844 28.808594 L 17.546875 28.824219 L 17.628906 28.84375 L 17.707031 28.863281 L 17.785156 28.890625 L 17.863281 28.914063 L 18.019531 28.976563 L 18.09375 29.011719 L 18.171875 29.046875 L 18.242188 29.085938 L 18.390625 29.171875 L 18.53125 29.265625 L 18.601563 29.316406 L 18.671875 29.371094 L 18.804688 29.480469 L 18.871094 29.542969 L 18.996094 29.667969 L 19.121094 29.800781 L 19.238281 29.941406 L 19.296875 30.015625 L 19.351563 30.089844 L 19.40625 30.167969 L 19.457031 30.246094 L 19.511719 30.328125 L 19.558594 30.410156 L 19.609375 30.496094 L 19.65625 30.578125 L 19.703125 30.667969 L 19.832031 30.9375 L 19.871094 31.03125 L 19.910156 31.128906 L 19.945313 31.222656 L 19.980469 31.320313 L 20.015625 31.421875 L 20.046875 31.519531 L 20.078125 31.621094 L 20.105469 31.726563 L 20.132813 31.828125 L 20.179688 32.039063 L 20.21875 32.257813 L 20.238281 32.363281 L 20.253906 32.476563 L 20.265625 32.585938 L 20.277344 32.699219 L 20.300781 33.039063 L 20.300781 33.15625 L 20.304688 33.273438 L 20.300781 33.386719 L 20.300781 33.503906 L 20.277344 33.84375 L 20.253906 34.070313 L 20.238281 34.179688 L 20.199219 34.398438 L 20.179688 34.503906 L 20.132813 34.714844 L 20.105469 34.820313 L 20.078125 34.921875 L 20.015625 35.125 L 19.984375 35.222656 L 19.945313 35.320313 L 19.910156 35.417969 L 19.832031 35.605469 L 19.789063 35.695313 L 19.746094 35.789063 L 19.703125 35.878906 L 19.609375 36.050781 L 19.5625 36.132813 L 19.511719 36.21875 L 19.460938 36.296875 L 19.40625 36.378906 L 19.296875 36.527344 L 19.179688 36.675781 L 19.121094 36.742188 L 19.058594 36.8125 L 18.996094 36.878906 L 18.871094 37.003906 L 18.738281 37.121094 L 18.671875 37.175781 L 18.601563 37.230469 L 18.53125 37.277344 L 18.460938 37.328125 L 18.390625 37.375 L 18.242188 37.460938 L 18.171875 37.5 L 18.09375 37.535156 L 18.019531 37.570313 L 17.941406 37.601563 L 17.785156 37.65625 L 17.707031 37.679688 L 17.628906 37.699219 L 17.546875 37.71875 L 17.464844 37.734375 L 17.300781 37.757813 L 17.21875 37.765625 L 17.136719 37.769531 L 16.96875 37.769531 L 16.886719 37.765625 L 16.800781 37.757813 L 16.636719 37.734375 L 16.558594 37.71875 L 16.476563 37.699219 L 16.398438 37.679688 L 16.316406 37.65625 L 16.238281 37.628906 L 16.164063 37.601563 L 16.085938 37.570313 L 16.011719 37.535156 L 15.933594 37.5 L 15.859375 37.460938 L 15.789063 37.417969 L 15.714844 37.375 L 15.644531 37.328125 L 15.574219 37.277344 L 15.503906 37.230469 L 15.433594 37.175781 L 15.367188 37.121094 L 15.234375 37.003906 L 15.109375 36.878906 L 15.046875 36.8125 L 14.984375 36.742188 L 14.925781 36.675781 L 14.867188 36.601563 L 14.8125 36.527344 L 14.753906 36.453125 L 14.699219 36.378906 L 14.648438 36.296875 L 14.59375 36.21875 L 14.546875 36.132813 L 14.496094 36.050781 L 14.402344 35.878906 L 14.359375 35.789063 L 14.316406 35.695313 L 14.273438 35.605469 L 14.195313 35.417969 L 14.160156 35.320313 L 14.121094 35.222656 L 14.089844 35.125 L 14.027344 34.921875 L 14 34.820313 L 13.972656 34.714844 L 13.925781 34.503906 L 13.90625 34.398438 L 13.867188 34.179688 L 13.855469 34.070313 L 13.839844 33.957031 L 13.828125 33.84375 L 13.8125 33.617188 L 13.808594 33.503906 L 13.804688 33.386719 L 13.804688 33.15625 L 13.808594 33.039063 L 13.8125 32.925781 L 13.828125 32.699219 L 13.839844 32.585938 L 13.855469 32.476563 L 13.867188 32.363281 L 13.886719 32.257813 L 13.925781 32.039063 L 13.972656 31.828125 L 14 31.726563 L 14.027344 31.621094 L 14.058594 31.519531 L 14.089844 31.421875 L 14.121094 31.320313 L 14.160156 31.222656 L 14.195313 31.128906 L 14.234375 31.03125 L 14.273438 30.9375 L 14.402344 30.667969 L 14.449219 30.578125 L 14.496094 30.496094 L 14.546875 30.410156 L 14.59375 30.328125 L 14.648438 30.246094 L 14.699219 30.167969 L 14.753906 30.089844 L 14.8125 30.015625 L 14.867188 29.941406 L 14.984375 29.800781 L 15.109375 29.667969 L 15.234375 29.542969 L 15.300781 29.480469 L 15.433594 29.371094 L 15.503906 29.316406 L 15.574219 29.265625 L 15.714844 29.171875 L 15.789063 29.128906 L 15.859375 29.085938 L 15.933594 29.046875 L 16.011719 29.011719 L 16.085938 28.976563 L 16.164063 28.945313 L 16.238281 28.914063 L 16.316406 28.890625 L 16.398438 28.863281 L 16.476563 28.84375 L 16.558594 28.824219 L 16.636719 28.808594 L 16.800781 28.785156 L 16.886719 28.78125 L 16.96875 28.773438 Z M 8.589844 8.429688 L 8.523438 8.636719 L 8.40625 9.050781 L 8.351563 9.253906 L 8.296875 9.460938 L 8.246094 9.660156 L 8.195313 9.863281 L 8.152344 10.0625 L 8.105469 10.265625 L 8.0625 10.460938 L 7.984375 10.851563 L 7.949219 11.046875 L 7.914063 11.234375 L 7.882813 11.425781 L 7.851563 11.613281 L 7.824219 11.800781 L 7.796875 11.980469 L 7.769531 12.164063 L 7.746094 12.34375 L 7.707031 12.695313 L 7.6875 12.867188 L 7.671875 13.039063 L 7.65625 13.207031 L 7.640625 13.371094 L 7.628906 13.535156 L 7.617188 13.691406 L 7.609375 13.851563 L 7.59375 14.15625 L 7.589844 14.304688 L 7.585938 14.449219 L 7.578125 14.589844 L 7.578125 15.246094 L 7.582031 15.367188 L 7.585938 15.484375 L 7.589844 15.597656 L 7.597656 15.707031 L 7.601563 15.808594 L 7.609375 15.910156 L 7.613281 16.007813 L 7.621094 16.097656 L 7.628906 16.183594 L 7.640625 16.265625 L 7.648438 16.339844 L 7.65625 16.410156 L 7.664063 16.476563 L 7.671875 16.535156 L 7.683594 16.589844 L 7.691406 16.632813 L 7.890625 17.671875 L 7.113281 18.527344 L 7.019531 18.632813 L 6.925781 18.734375 L 6.835938 18.84375 L 6.742188 18.949219 L 6.65625 19.054688 L 6.566406 19.164063 L 6.484375 19.269531 L 6.398438 19.378906 L 6.152344 19.707031 L 6.074219 19.816406 L 5.996094 19.929688 L 5.921875 20.039063 L 5.773438 20.265625 L 5.632813 20.492188 L 5.566406 20.609375 L 5.496094 20.726563 L 5.433594 20.839844 L 5.367188 20.957031 L 5.304688 21.074219 L 5.242188 21.195313 L 5.183594 21.3125 L 5.066406 21.554688 L 5.011719 21.679688 L 4.957031 21.800781 L 4.902344 21.925781 L 4.800781 22.175781 L 4.753906 22.304688 L 4.703125 22.433594 L 4.660156 22.5625 L 4.613281 22.691406 L 4.570313 22.824219 L 4.53125 22.957031 L 4.488281 23.089844 L 4.453125 23.226563 L 4.414063 23.359375 L 4.378906 23.5 L 4.34375 23.636719 L 4.3125 23.777344 L 4.28125 23.921875 L 4.253906 24.0625 L 4.222656 24.207031 L 4.195313 24.355469 L 4.148438 24.652344 L 4.128906 24.800781 L 4.109375 24.953125 L 4.070313 25.265625 L 4.058594 25.421875 L 4.042969 25.578125 L 4.03125 25.742188 L 4.023438 25.902344 L 4.015625 26.066406 L 4.007813 26.234375 L 4 26.570313 L 4 26.9375 L 4.003906 27.132813 L 4.007813 27.324219 L 4.011719 27.519531 L 4.015625 27.707031 L 4.03125 28.082031 L 4.039063 28.265625 L 4.0625 28.632813 L 4.074219 28.8125 L 4.136719 29.515625 L 4.15625 29.6875 L 4.195313 30.023438 L 4.21875 30.191406 L 4.289063 30.683594 L 4.316406 30.84375 L 4.398438 31.3125 L 4.429688 31.46875 L 4.492188 31.773438 L 4.523438 31.921875 L 4.59375 32.21875 L 4.664063 32.507813 L 4.703125 32.648438 L 4.738281 32.789063 L 4.777344 32.929688 L 4.820313 33.066406 L 4.859375 33.203125 L 4.902344 33.339844 L 4.988281 33.605469 L 5.074219 33.863281 L 5.121094 33.992188 L 5.167969 34.117188 L 5.214844 34.246094 L 5.261719 34.367188 L 5.3125 34.492188 L 5.359375 34.613281 L 5.410156 34.734375 L 5.460938 34.851563 L 5.515625 34.96875 L 5.566406 35.085938 L 5.617188 35.199219 L 5.671875 35.316406 L 5.726563 35.429688 L 5.835938 35.648438 L 5.894531 35.757813 L 5.949219 35.867188 L 6.125 36.183594 L 6.242188 36.386719 L 6.367188 36.589844 L 6.429688 36.6875 L 6.488281 36.785156 L 6.554688 36.878906 L 6.617188 36.976563 L 6.679688 37.070313 L 6.746094 37.164063 L 6.808594 37.253906 L 6.875 37.347656 L 6.941406 37.4375 L 7.007813 37.523438 L 7.015625 37.535156 L 7.011719 37.519531 L 6.972656 37.425781 L 6.9375 37.332031 L 6.902344 37.234375 L 6.871094 37.140625 L 6.835938 37.042969 L 6.804688 36.945313 L 6.773438 36.851563 L 6.742188 36.753906 L 6.714844 36.652344 L 6.683594 36.554688 L 6.65625 36.453125 L 6.628906 36.355469 L 6.574219 36.152344 L 6.550781 36.046875 L 6.503906 35.84375 L 6.457031 35.636719 L 6.414063 35.425781 L 6.378906 35.214844 L 6.308594 34.785156 L 6.28125 34.566406 L 6.253906 34.34375 L 6.230469 34.121094 L 6.210938 33.894531 L 6.195313 33.667969 L 6.171875 33.207031 L 6.164063 32.972656 L 6.15625 32.496094 L 6.15625 32.371094 L 6.167969 31.996094 L 6.191406 31.621094 L 6.203125 31.496094 L 6.214844 31.375 L 6.230469 31.25 L 6.242188 31.125 L 6.261719 31 L 6.277344 30.878906 L 6.300781 30.753906 L 6.320313 30.628906 L 6.34375 30.503906 L 6.367188 30.382813 L 6.394531 30.257813 L 6.421875 30.136719 L 6.449219 30.011719 L 6.484375 29.890625 L 6.515625 29.765625 L 6.621094 29.402344 L 6.664063 29.28125 L 6.703125 29.160156 L 6.746094 29.039063 L 6.789063 28.921875 L 6.835938 28.800781 L 6.886719 28.683594 L 6.933594 28.5625 L 6.984375 28.445313 L 7.148438 28.09375 L 7.207031 27.976563 L 7.269531 27.863281 L 7.328125 27.746094 L 7.394531 27.632813 L 7.457031 27.519531 L 7.523438 27.40625 L 7.664063 27.179688 L 7.734375 27.070313 L 7.808594 26.960938 L 7.882813 26.847656 L 7.960938 26.738281 L 8.039063 26.632813 L 8.121094 26.523438 L 8.285156 26.3125 L 8.457031 26.101563 L 8.546875 25.996094 L 8.636719 25.894531 L 8.917969 25.589844 L 9.015625 25.492188 L 9.113281 25.390625 L 9.316406 25.195313 L 9.421875 25.097656 L 9.515625 25.011719 L 9.71875 24.839844 L 9.820313 24.757813 L 10.023438 24.601563 L 10.128906 24.523438 L 10.234375 24.449219 L 10.34375 24.378906 L 10.449219 24.308594 L 10.558594 24.238281 L 10.664063 24.171875 L 10.777344 24.109375 L 10.996094 23.984375 L 11.109375 23.925781 L 11.449219 23.761719 L 11.5625 23.714844 L 11.675781 23.664063 L 11.789063 23.617188 L 11.90625 23.570313 L 12.023438 23.527344 L 12.136719 23.484375 L 12.371094 23.40625 L 12.722656 23.300781 L 12.839844 23.269531 L 12.960938 23.238281 L 13.3125 23.15625 L 13.433594 23.128906 L 13.550781 23.105469 L 13.671875 23.085938 L 13.789063 23.0625 L 13.90625 23.042969 L 14.027344 23.023438 L 14.148438 23.007813 L 14.269531 22.988281 L 14.386719 22.976563 L 14.628906 22.945313 L 14.746094 22.933594 L 14.867188 22.925781 L 15.109375 22.902344 L 15.351563 22.886719 L 15.835938 22.863281 L 16.320313 22.855469 L 16.566406 22.851563 L 16.808594 22.855469 L 17.054688 22.855469 L 17.792969 22.878906 L 18.039063 22.890625 L 18.289063 22.902344 L 18.535156 22.914063 L 18.785156 22.929688 L 19.035156 22.941406 L 19.289063 22.960938 L 19.789063 22.992188 L 20.800781 23.0625 L 21.824219 23.132813 L 22.597656 23.179688 L 23.628906 23.226563 L 23.890625 23.234375 L 24.148438 23.238281 L 24.671875 23.246094 L 25.332031 23.246094 L 25.59375 23.242188 L 26.109375 23.234375 L 26.371094 23.226563 L 26.886719 23.203125 L 27.148438 23.191406 L 27.40625 23.179688 L 27.921875 23.148438 L 28.175781 23.132813 L 29.199219 23.0625 L 30.210938 22.992188 L 30.714844 22.960938 L 30.964844 22.941406 L 31.214844 22.929688 L 31.464844 22.914063 L 31.714844 22.902344 L 31.960938 22.890625 L 32.210938 22.878906 L 32.949219 22.855469 L 33.191406 22.855469 L 33.4375 22.851563 L 33.679688 22.855469 L 33.925781 22.859375 L 34.167969 22.863281 L 34.410156 22.875 L 34.648438 22.886719 L 34.773438 22.894531 L 34.894531 22.902344 L 35.011719 22.914063 L 35.132813 22.925781 L 35.253906 22.933594 L 35.375 22.949219 L 35.492188 22.960938 L 35.855469 23.007813 L 35.972656 23.023438 L 36.09375 23.042969 L 36.210938 23.0625 L 36.332031 23.085938 L 36.449219 23.105469 L 36.570313 23.132813 L 36.6875 23.15625 L 36.804688 23.183594 L 36.925781 23.210938 L 37.042969 23.238281 L 37.277344 23.300781 L 37.628906 23.40625 L 37.863281 23.484375 L 37.980469 23.527344 L 38.09375 23.570313 L 38.210938 23.617188 L 38.324219 23.664063 L 38.441406 23.714844 L 38.667969 23.816406 L 38.78125 23.871094 L 38.890625 23.925781 L 39.003906 23.984375 L 39.113281 24.046875 L 39.226563 24.109375 L 39.335938 24.171875 L 39.445313 24.238281 L 39.554688 24.308594 L 39.765625 24.449219 L 39.871094 24.523438 L 39.976563 24.601563 L 40.078125 24.679688 L 40.183594 24.757813 L 40.285156 24.839844 L 40.386719 24.925781 L 40.484375 25.011719 L 40.578125 25.097656 L 40.6875 25.195313 L 40.789063 25.292969 L 40.886719 25.390625 L 40.984375 25.492188 L 41.082031 25.589844 L 41.179688 25.691406 L 41.273438 25.792969 L 41.453125 25.996094 L 41.542969 26.101563 L 41.800781 26.417969 L 41.882813 26.523438 L 41.960938 26.632813 L 42.039063 26.738281 L 42.117188 26.847656 L 42.191406 26.960938 L 42.339844 27.179688 L 42.40625 27.292969 L 42.476563 27.40625 L 42.609375 27.632813 L 42.671875 27.746094 L 42.734375 27.863281 L 42.792969 27.976563 L 42.851563 28.09375 L 43.015625 28.445313 L 43.066406 28.5625 L 43.117188 28.683594 L 43.164063 28.800781 L 43.210938 28.921875 L 43.253906 29.039063 L 43.339844 29.28125 L 43.378906 29.402344 L 43.484375 29.765625 L 43.519531 29.890625 L 43.550781 30.011719 L 43.578125 30.136719 L 43.605469 30.257813 L 43.632813 30.382813 L 43.65625 30.503906 L 43.703125 30.753906 L 43.722656 30.878906 L 43.738281 31 L 43.757813 31.125 L 43.773438 31.25 L 43.785156 31.375 L 43.796875 31.496094 L 43.808594 31.621094 L 43.832031 31.996094 L 43.84375 32.371094 L 43.84375 32.734375 L 43.839844 32.972656 L 43.828125 33.203125 L 43.820313 33.4375 L 43.804688 33.664063 L 43.789063 33.894531 L 43.769531 34.117188 L 43.722656 34.5625 L 43.695313 34.777344 L 43.660156 34.996094 L 43.628906 35.210938 L 43.589844 35.421875 L 43.550781 35.628906 L 43.457031 36.042969 L 43.40625 36.246094 L 43.355469 36.445313 L 43.300781 36.640625 L 43.269531 36.742188 L 43.144531 37.132813 L 43.109375 37.226563 L 43.078125 37.320313 L 43.042969 37.414063 L 43.011719 37.496094 L 43.058594 37.4375 L 43.125 37.347656 L 43.191406 37.253906 L 43.253906 37.164063 L 43.320313 37.070313 L 43.382813 36.976563 L 43.445313 36.878906 L 43.511719 36.785156 L 43.570313 36.6875 L 43.632813 36.589844 L 43.757813 36.386719 L 43.875 36.183594 L 44.050781 35.867188 L 44.105469 35.757813 L 44.164063 35.648438 L 44.273438 35.429688 L 44.328125 35.316406 L 44.382813 35.199219 L 44.433594 35.085938 L 44.484375 34.96875 L 44.539063 34.851563 L 44.589844 34.734375 L 44.640625 34.613281 L 44.6875 34.492188 L 44.738281 34.367188 L 44.785156 34.246094 L 44.832031 34.117188 L 44.878906 33.992188 L 44.925781 33.863281 L 45.011719 33.605469 L 45.097656 33.339844 L 45.140625 33.203125 L 45.179688 33.066406 L 45.222656 32.929688 L 45.261719 32.789063 L 45.296875 32.648438 L 45.335938 32.507813 L 45.40625 32.21875 L 45.476563 31.921875 L 45.507813 31.773438 L 45.570313 31.46875 L 45.601563 31.3125 L 45.683594 30.84375 L 45.710938 30.683594 L 45.78125 30.191406 L 45.804688 30.023438 L 45.84375 29.6875 L 45.863281 29.515625 L 45.925781 28.8125 L 45.9375 28.632813 L 45.960938 28.265625 L 45.96875 28.082031 L 45.984375 27.707031 L 45.988281 27.519531 L 45.992188 27.324219 L 45.996094 27.132813 L 46 26.9375 L 46 26.570313 L 45.992188 26.234375 L 45.984375 26.066406 L 45.976563 25.902344 L 45.96875 25.742188 L 45.957031 25.578125 L 45.941406 25.421875 L 45.929688 25.265625 L 45.890625 24.953125 L 45.871094 24.800781 L 45.851563 24.652344 L 45.804688 24.355469 L 45.777344 24.207031 L 45.746094 24.0625 L 45.71875 23.921875 L 45.6875 23.777344 L 45.65625 23.636719 L 45.621094 23.5 L 45.585938 23.359375 L 45.546875 23.226563 L 45.511719 23.089844 L 45.46875 22.957031 L 45.429688 22.824219 L 45.386719 22.691406 L 45.339844 22.5625 L 45.296875 22.433594 L 45.246094 22.304688 L 45.199219 22.175781 L 45.097656 21.925781 L 45.042969 21.800781 L 44.988281 21.679688 L 44.933594 21.554688 L 44.816406 21.3125 L 44.757813 21.195313 L 44.695313 21.074219 L 44.632813 20.957031 L 44.566406 20.839844 L 44.503906 20.726563 L 44.433594 20.609375 L 44.367188 20.492188 L 44.226563 20.265625 L 44.078125 20.039063 L 44.003906 19.929688 L 43.925781 19.816406 L 43.847656 19.707031 L 43.601563 19.378906 L 43.515625 19.269531 L 43.433594 19.164063 L 43.34375 19.054688 L 43.257813 18.949219 L 43.164063 18.84375 L 43.074219 18.734375 L 42.980469 18.632813 L 42.886719 18.527344 L 42.109375 17.671875 L 42.308594 16.636719 L 42.316406 16.601563 L 42.324219 16.554688 L 42.332031 16.5 L 42.339844 16.4375 L 42.347656 16.371094 L 42.355469 16.300781 L 42.371094 16.136719 L 42.378906 16.046875 L 42.382813 15.953125 L 42.390625 15.855469 L 42.394531 15.753906 L 42.402344 15.644531 L 42.410156 15.417969 L 42.410156 15.296875 L 42.414063 15.171875 L 42.414063 14.777344 L 42.410156 14.640625 L 42.402344 14.351563 L 42.398438 14.203125 L 42.390625 14.050781 L 42.382813 13.894531 L 42.371094 13.738281 L 42.363281 13.574219 L 42.351563 13.410156 L 42.335938 13.246094 L 42.304688 12.902344 L 42.285156 12.730469 L 42.265625 12.554688 L 42.246094 12.375 L 42.222656 12.191406 L 42.199219 12.011719 L 42.144531 11.636719 L 42.113281 11.445313 L 42.078125 11.257813 L 42.046875 11.0625 L 42.011719 10.867188 L 41.972656 10.671875 L 41.933594 10.472656 L 41.847656 10.074219 L 41.800781 9.871094 L 41.648438 9.261719 L 41.589844 9.054688 L 41.535156 8.847656 L 41.472656 8.636719 L 41.410156 8.429688 L 41.382813 8.34375 L 41.308594 8.363281 L 41.171875 8.40625 L 41.027344 8.449219 L 40.878906 8.5 L 40.566406 8.601563 L 40.402344 8.660156 L 40.230469 8.71875 L 40.058594 8.78125 L 39.878906 8.847656 L 39.695313 8.917969 L 39.507813 8.992188 L 39.3125 9.070313 L 39.113281 9.148438 L 38.910156 9.234375 L 38.703125 9.324219 L 38.488281 9.414063 L 38.273438 9.511719 L 38.050781 9.613281 L 37.824219 9.71875 L 37.59375 9.828125 L 37.359375 9.941406 L 36.875 10.183594 L 36.628906 10.3125 L 36.375 10.445313 L 36.117188 10.582031 L 35.859375 10.722656 L 35.59375 10.871094 L 35.324219 11.023438 L 35.054688 11.179688 L 34.777344 11.34375 L 34.496094 11.511719 L 33.925781 11.863281 L 33.632813 12.050781 L 33.484375 12.144531 L 33.339844 12.238281 L 33.1875 12.339844 L 33.039063 12.4375 L 32.886719 12.535156 L 32.734375 12.640625 L 32.585938 12.742188 L 31.671875 13.367188 L 30.664063 13.097656 L 30.554688 13.070313 L 30.433594 13.042969 L 30.308594 13.015625 L 30.175781 12.988281 L 30.035156 12.964844 L 29.890625 12.9375 L 29.578125 12.890625 L 29.414063 12.863281 L 29.246094 12.84375 L 29.074219 12.820313 L 28.898438 12.800781 L 28.53125 12.761719 L 28.339844 12.742188 L 28.148438 12.726563 L 27.953125 12.710938 L 27.753906 12.695313 L 27.554688 12.683594 L 27.347656 12.671875 L 27.140625 12.65625 L 26.933594 12.648438 L 26.722656 12.636719 L 26.300781 12.621094 L 26.085938 12.617188 L 25.867188 12.613281 L 25.652344 12.609375 L 25.433594 12.605469 L 25.21875 12.605469 L 25 12.601563 L 24.78125 12.605469 L 24.566406 12.605469 L 24.347656 12.609375 L 24.132813 12.613281 L 23.914063 12.617188 L 23.699219 12.621094 L 23.277344 12.636719 L 23.066406 12.648438 L 22.859375 12.65625 L 22.652344 12.671875 L 22.246094 12.695313 L 22.046875 12.710938 L 21.851563 12.726563 L 21.660156 12.742188 L 21.46875 12.761719 L 21.101563 12.800781 L 20.925781 12.820313 L 20.753906 12.84375 L 20.585938 12.863281 L 20.421875 12.886719 L 20.265625 12.914063 L 20.109375 12.9375 L 19.964844 12.964844 L 19.824219 12.988281 L 19.691406 13.015625 L 19.566406 13.042969 L 19.445313 13.070313 L 19.335938 13.097656 L 18.328125 13.367188 L 17.414063 12.742188 L 17.261719 12.636719 L 17.113281 12.535156 L 16.960938 12.4375 L 16.8125 12.335938 L 16.660156 12.238281 L 16.515625 12.144531 L 16.367188 12.050781 L 16.074219 11.863281 L 15.785156 11.683594 L 15.503906 11.511719 L 15.222656 11.34375 L 14.945313 11.179688 L 14.675781 11.023438 L 14.40625 10.871094 L 14.140625 10.722656 L 13.878906 10.582031 L 13.625 10.445313 L 13.371094 10.3125 L 13.125 10.183594 L 12.878906 10.0625 L 12.640625 9.941406 L 12.40625 9.828125 L 12.175781 9.71875 L 11.949219 9.613281 L 11.726563 9.511719 L 11.511719 9.414063 L 11.296875 9.324219 L 11.089844 9.234375 L 10.886719 9.148438 L 10.6875 9.070313 L 10.496094 8.992188 L 10.304688 8.917969 L 10.121094 8.847656 L 9.941406 8.78125 L 9.769531 8.71875 L 9.597656 8.660156 L 9.433594 8.601563 L 9.121094 8.5 L 8.972656 8.449219 L 8.691406 8.363281 L 8.613281 8.34375 Z M 17.039063 30.773438 L 17.023438 30.773438 L 17.011719 30.777344 L 16.996094 30.777344 L 16.984375 30.78125 L 16.972656 30.78125 L 16.925781 30.792969 L 16.910156 30.800781 L 16.894531 30.804688 L 16.878906 30.8125 L 16.859375 30.820313 L 16.820313 30.84375 L 16.796875 30.855469 L 16.777344 30.867188 L 16.707031 30.914063 L 16.679688 30.933594 L 16.65625 30.957031 L 16.574219 31.027344 L 16.546875 31.058594 L 16.488281 31.117188 L 16.433594 31.1875 L 16.402344 31.222656 L 16.375 31.261719 L 16.347656 31.304688 L 16.320313 31.34375 L 16.289063 31.390625 L 16.261719 31.433594 L 16.234375 31.480469 L 16.179688 31.582031 L 16.15625 31.632813 L 16.128906 31.6875 L 16.105469 31.742188 L 16.035156 31.917969 L 16.011719 31.980469 L 15.972656 32.105469 L 15.953125 32.171875 L 15.933594 32.234375 L 15.917969 32.304688 L 15.902344 32.371094 L 15.871094 32.511719 L 15.859375 32.585938 L 15.847656 32.65625 L 15.835938 32.730469 L 15.828125 32.804688 L 15.820313 32.882813 L 15.816406 32.957031 L 15.808594 33.035156 L 15.804688 33.113281 L 15.804688 33.429688 L 15.808594 33.507813 L 15.816406 33.585938 L 15.820313 33.660156 L 15.828125 33.738281 L 15.835938 33.8125 L 15.859375 33.960938 L 15.871094 34.03125 L 15.917969 34.242188 L 15.933594 34.308594 L 15.953125 34.375 L 15.972656 34.4375 L 15.992188 34.503906 L 16.011719 34.566406 L 16.035156 34.628906 L 16.082031 34.746094 L 16.128906 34.855469 L 16.183594 34.964844 L 16.207031 35.015625 L 16.289063 35.15625 L 16.320313 35.199219 L 16.347656 35.242188 L 16.375 35.28125 L 16.40625 35.320313 L 16.433594 35.359375 L 16.460938 35.394531 L 16.488281 35.425781 L 16.519531 35.457031 L 16.546875 35.488281 L 16.601563 35.542969 L 16.65625 35.589844 L 16.679688 35.609375 L 16.707031 35.628906 L 16.730469 35.648438 L 16.777344 35.679688 L 16.796875 35.691406 L 16.820313 35.703125 L 16.839844 35.714844 L 16.878906 35.730469 L 16.910156 35.746094 L 16.925781 35.75 L 16.941406 35.757813 L 16.957031 35.761719 L 16.972656 35.761719 L 16.984375 35.765625 L 16.996094 35.765625 L 17.011719 35.769531 L 17.09375 35.769531 L 17.105469 35.765625 L 17.121094 35.765625 L 17.132813 35.761719 L 17.195313 35.746094 L 17.226563 35.730469 L 17.265625 35.714844 L 17.285156 35.703125 L 17.308594 35.691406 L 17.328125 35.679688 L 17.375 35.648438 L 17.398438 35.628906 L 17.425781 35.609375 L 17.449219 35.589844 L 17.503906 35.542969 L 17.558594 35.488281 L 17.613281 35.425781 L 17.644531 35.394531 L 17.671875 35.359375 L 17.699219 35.320313 L 17.730469 35.28125 L 17.757813 35.242188 L 17.785156 35.199219 L 17.816406 35.15625 L 17.898438 35.015625 L 17.925781 34.964844 L 17.949219 34.910156 L 17.976563 34.855469 L 18 34.800781 L 18.023438 34.742188 L 18.050781 34.6875 L 18.070313 34.628906 L 18.09375 34.566406 L 18.113281 34.503906 L 18.136719 34.4375 L 18.152344 34.375 L 18.171875 34.308594 L 18.1875 34.238281 L 18.203125 34.171875 L 18.234375 34.03125 L 18.246094 33.960938 L 18.269531 33.8125 L 18.277344 33.738281 L 18.285156 33.660156 L 18.289063 33.585938 L 18.296875 33.507813 L 18.300781 33.429688 L 18.300781 33.351563 L 18.304688 33.273438 L 18.300781 33.191406 L 18.300781 33.113281 L 18.296875 33.035156 L 18.289063 32.960938 L 18.285156 32.882813 L 18.277344 32.808594 L 18.269531 32.730469 L 18.257813 32.65625 L 18.246094 32.585938 L 18.234375 32.511719 L 18.203125 32.371094 L 18.171875 32.238281 L 18.152344 32.171875 L 18.136719 32.105469 L 18.113281 32.042969 L 18.09375 31.980469 L 18.070313 31.917969 L 18.050781 31.859375 L 18.023438 31.800781 L 18 31.742188 L 17.976563 31.6875 L 17.949219 31.632813 L 17.925781 31.582031 L 17.871094 31.480469 L 17.84375 31.433594 L 17.816406 31.390625 L 17.785156 31.347656 L 17.730469 31.261719 L 17.699219 31.222656 L 17.644531 31.152344 L 17.613281 31.117188 L 17.585938 31.085938 L 17.503906 31.003906 L 17.449219 30.957031 L 17.425781 30.933594 L 17.398438 30.914063 L 17.328125 30.867188 L 17.308594 30.855469 L 17.285156 30.84375 L 17.246094 30.820313 L 17.226563 30.8125 L 17.210938 30.804688 L 17.179688 30.796875 L 17.160156 30.789063 L 17.148438 30.785156 L 17.132813 30.78125 L 17.121094 30.78125 L 17.105469 30.777344 L 17.09375 30.777344 L 17.078125 30.773438 Z M 32.933594 30.773438 L 32.921875 30.773438 L 32.90625 30.777344 L 32.894531 30.777344 L 32.882813 30.78125 L 32.867188 30.78125 L 32.851563 30.785156 L 32.839844 30.789063 L 32.824219 30.796875 L 32.804688 30.800781 L 32.789063 30.804688 L 32.773438 30.8125 L 32.753906 30.820313 L 32.714844 30.84375 L 32.691406 30.855469 L 32.671875 30.867188 L 32.601563 30.914063 L 32.574219 30.933594 L 32.550781 30.957031 L 32.496094 31.003906 L 32.414063 31.085938 L 32.386719 31.117188 L 32.355469 31.152344 L 32.328125 31.1875 L 32.300781 31.226563 L 32.269531 31.261719 L 32.214844 31.347656 L 32.183594 31.390625 L 32.15625 31.433594 L 32.128906 31.484375 L 32.101563 31.53125 L 32.074219 31.582031 L 32.050781 31.632813 L 32.023438 31.6875 L 32 31.742188 L 31.976563 31.800781 L 31.949219 31.859375 L 31.929688 31.917969 L 31.90625 31.980469 L 31.886719 32.042969 L 31.863281 32.105469 L 31.847656 32.171875 L 31.828125 32.238281 L 31.796875 32.371094 L 31.765625 32.511719 L 31.753906 32.585938 L 31.742188 32.65625 L 31.730469 32.730469 L 31.722656 32.804688 L 31.714844 32.882813 L 31.710938 32.957031 L 31.703125 33.035156 L 31.699219 33.113281 L 31.699219 33.191406 L 31.695313 33.273438 L 31.699219 33.351563 L 31.699219 33.429688 L 31.703125 33.507813 L 31.710938 33.585938 L 31.714844 33.660156 L 31.722656 33.738281 L 31.730469 33.8125 L 31.753906 33.960938 L 31.765625 34.03125 L 31.796875 34.171875 L 31.8125 34.238281 L 31.828125 34.308594 L 31.847656 34.375 L 31.863281 34.4375 L 31.886719 34.503906 L 31.90625 34.566406 L 31.929688 34.625 L 31.949219 34.6875 L 31.976563 34.742188 L 32 34.800781 L 32.023438 34.855469 L 32.050781 34.910156 L 32.074219 34.964844 L 32.101563 35.011719 L 32.128906 35.0625 L 32.183594 35.15625 L 32.214844 35.199219 L 32.242188 35.242188 L 32.269531 35.28125 L 32.300781 35.320313 L 32.328125 35.359375 L 32.355469 35.394531 L 32.386719 35.425781 L 32.441406 35.488281 L 32.496094 35.542969 L 32.550781 35.589844 L 32.574219 35.609375 L 32.601563 35.628906 L 32.625 35.648438 L 32.671875 35.679688 L 32.691406 35.691406 L 32.714844 35.703125 L 32.734375 35.714844 L 32.773438 35.730469 L 32.789063 35.738281 L 32.808594 35.746094 L 32.839844 35.753906 L 32.851563 35.757813 L 32.882813 35.765625 L 32.894531 35.765625 L 32.90625 35.769531 L 32.988281 35.769531 L 33.003906 35.765625 L 33.015625 35.765625 L 33.027344 35.761719 L 33.042969 35.761719 L 33.058594 35.757813 L 33.074219 35.75 L 33.089844 35.746094 L 33.121094 35.730469 L 33.160156 35.714844 L 33.179688 35.703125 L 33.203125 35.691406 L 33.222656 35.679688 L 33.269531 35.648438 L 33.292969 35.628906 L 33.320313 35.609375 L 33.34375 35.589844 L 33.398438 35.542969 L 33.453125 35.488281 L 33.480469 35.457031 L 33.511719 35.425781 L 33.539063 35.394531 L 33.566406 35.359375 L 33.59375 35.320313 L 33.625 35.28125 L 33.652344 35.242188 L 33.679688 35.199219 L 33.710938 35.15625 L 33.792969 35.015625 L 33.816406 34.964844 L 33.871094 34.855469 L 33.917969 34.746094 L 33.964844 34.628906 L 33.988281 34.566406 L 34.007813 34.503906 L 34.027344 34.4375 L 34.046875 34.375 L 34.066406 34.308594 L 34.082031 34.242188 L 34.128906 34.03125 L 34.140625 33.960938 L 34.164063 33.8125 L 34.171875 33.738281 L 34.179688 33.660156 L 34.183594 33.585938 L 34.191406 33.507813 L 34.195313 33.429688 L 34.195313 33.113281 L 34.1875 32.957031 L 34.179688 32.882813 L 34.171875 32.804688 L 34.164063 32.730469 L 34.152344 32.65625 L 34.140625 32.585938 L 34.128906 32.511719 L 34.113281 32.441406 L 34.101563 32.371094 L 34.085938 32.304688 L 34.066406 32.234375 L 34.046875 32.171875 L 34.027344 32.105469 L 33.988281 31.980469 L 33.964844 31.917969 L 33.941406 31.859375 L 33.921875 31.800781 L 33.894531 31.742188 L 33.871094 31.6875 L 33.84375 31.632813 L 33.820313 31.582031 L 33.765625 31.480469 L 33.738281 31.433594 L 33.710938 31.390625 L 33.679688 31.34375 L 33.652344 31.304688 L 33.625 31.261719 L 33.597656 31.222656 L 33.566406 31.1875 L 33.511719 31.117188 L 33.453125 31.058594 L 33.425781 31.027344 L 33.371094 30.980469 L 33.347656 30.957031 L 33.320313 30.933594 L 33.292969 30.914063 L 33.222656 30.867188 L 33.203125 30.855469 L 33.179688 30.84375 L 33.140625 30.820313 L 33.121094 30.8125 L 33.105469 30.804688 L 33.089844 30.800781 L 33.074219 30.792969 L 33.027344 30.78125 L 33.015625 30.78125 L 33.003906 30.777344 L 32.988281 30.777344 L 32.976563 30.773438 Z" />
</svg>